<?xml version="1.0" standalone="no"?>
<!DOCTYPE svg PUBLIC "-//W3C//DTD SVG 20010904//EN"
 "http://www.w3.org/TR/2001/REC-SVG-20010904/DTD/svg10.dtd">
<svg version="1.0" xmlns="http://www.w3.org/2000/svg"
 width="400.000000pt" height="400.000000pt" viewBox="0 0 400.000000 400.000000"
 preserveAspectRatio="xMidYMid meet">

<g transform="translate(0.000000,400.000000) scale(0.100000,-0.100000)"
fill="#000000" stroke="none">
<path d="M1062 3318 c-9 -9 -12 -173 -12 -675 l0 -663 -140 0 c-99 0 -151 -4
-175 -14 -65 -27 -65 -30 -65 -475 l0 -401 29 -32 29 -33 161 -3 161 -3 0
-163 c0 -113 4 -166 12 -174 17 -17 1859 -17 1876 0 7 7 12 40 12 80 l0 68
156 0 156 0 34 34 34 34 0 381 0 381 -29 32 -29 33 -159 5 -158 5 -3 784 c-1
559 -5 788 -13 798 -16 18 -1858 20 -1877 1z m1808 -153 l0 -95 -870 0 -870 0
0 95 0 95 870 0 870 0 0 -95z m0 -800 l0 -635 -180 0 c-192 0 -218 -5 -247
-49 -16 -23 -18 -62 -21 -381 -2 -239 0 -367 8 -393 19 -65 39 -71 250 -77
l185 -5 3 -37 c3 -36 3 -37 -40 -42 -24 -3 -414 -5 -868 -3 l-825 2 -3 138 -3
137 336 0 c369 0 380 2 410 60 14 26 15 85 13 430 l-3 400 -33 32 -32 33 -345
3 -345 3 0 509 0 510 870 0 870 0 0 -635z m-1062 -860 c2 -358 1 -391 -15
-402 -13 -10 -133 -13 -517 -13 -451 0 -501 2 -518 17 -17 15 -18 40 -18 385
0 237 4 376 10 389 11 19 25 19 533 17 l522 -3 3 -390z m1436 139 c14 -13 16
-60 16 -364 0 -304 -2 -351 -16 -364 -13 -14 -61 -16 -368 -16 -260 0 -355 3
-364 12 -17 17 -17 719 0 736 9 9 104 12 364 12 307 0 355 -2 368 -16z"/>
<path d="M2464 3174 c-9 -34 8 -45 66 -42 43 3 45 4 45 33 0 29 -2 30 -52 33
-49 3 -53 2 -59 -24z"/>
<path d="M2674 3186 c-15 -38 -1 -51 56 -51 54 0 55 0 55 30 0 29 -1 30 -53
33 -39 2 -54 -1 -58 -12z"/>
<path d="M1883 2846 c-104 -34 -204 -123 -251 -224 -24 -50 -27 -69 -27 -157
1 -124 23 -186 96 -268 168 -189 454 -179 616 21 90 111 109 284 45 415 -39
79 -120 158 -199 195 -70 32 -210 41 -280 18z m242 -81 c136 -56 222 -213 196
-358 -6 -33 -14 -64 -19 -69 -5 -5 -39 12 -76 37 -37 25 -74 45 -83 45 -11 0
-13 5 -8 18 36 84 39 99 26 143 -16 55 -65 103 -119 120 -83 24 -176 -31 -203
-120 -13 -44 -10 -59 26 -143 5 -13 3 -18 -8 -18 -9 0 -46 -20 -83 -45 -37
-25 -71 -42 -76 -37 -5 5 -13 36 -19 70 -29 166 78 330 245 373 45 12 157 3
201 -16z m-60 -160 c58 -57 16 -155 -65 -155 -81 0 -123 98 -65 155 34 35 96
35 130 0z m77 -268 c29 -15 67 -40 83 -58 l30 -31 -35 -29 c-69 -58 -116 -74
-220 -74 -104 0 -149 15 -220 74 l-35 29 25 27 c88 94 251 121 372 62z"/>
<path d="M2153 1922 c-166 -2 -172 -3 -179 -24 -14 -45 7 -48 332 -48 262 0
305 2 318 16 18 18 19 23 6 44 -10 16 -98 18 -477 12z"/>
<path d="M2697 1906 c-10 -25 3 -46 31 -53 33 -8 57 8 57 38 0 21 -5 24 -41
27 -30 2 -43 -1 -47 -12z"/>
<path d="M1979 1704 c-20 -24 2 -48 52 -56 57 -9 247 -8 279 1 28 8 38 35 20
56 -19 23 -332 22 -351 -1z"/>
<path d="M1986 1504 c-9 -8 -16 -21 -16 -28 0 -31 24 -36 186 -36 170 0 190 5
182 47 -5 25 -38 31 -195 32 -116 1 -144 -2 -157 -15z"/>
<path d="M1979 1294 c-9 -11 -10 -20 -2 -32 9 -15 33 -17 184 -17 159 0 174 1
177 18 8 42 -12 47 -183 47 -136 0 -165 -3 -176 -16z"/>
<path d="M1998 1103 c-22 -6 -33 -40 -18 -58 16 -20 329 -22 348 -3 18 18 14
46 -7 58 -19 10 -287 13 -323 3z"/>
<path d="M1271 886 c-7 -8 -10 -24 -6 -36 5 -16 15 -20 46 -20 43 0 60 20 42
49 -13 22 -66 26 -82 7z"/>
<path d="M1430 885 c-22 -26 -8 -50 32 -53 28 -2 39 1 47 17 21 39 -49 72 -79
36z"/>
<path d="M1584 886 c-15 -12 -17 -18 -8 -33 10 -17 35 -18 385 -18 352 0 374
1 377 18 9 46 2 47 -377 47 -295 0 -361 -2 -377 -14z"/>
<path d="M879 1797 c-95 -64 -51 -217 62 -217 79 0 129 49 129 126 0 29 -8 44
-39 75 -32 32 -46 39 -78 39 -25 0 -53 -9 -74 -23z m101 -67 c11 -11 20 -25
20 -32 0 -18 -31 -48 -51 -48 -23 0 -49 26 -49 50 0 22 26 50 46 50 8 0 23 -9
34 -20z"/>
<path d="M1395 1582 c-6 -4 -37 -44 -69 -89 -31 -46 -59 -83 -61 -83 -2 0 -27
25 -56 55 -28 30 -60 55 -70 55 -11 0 -66 -54 -135 -132 -149 -170 -151 -173
-130 -196 14 -17 44 -18 398 -19 221 -1 390 3 401 8 9 5 17 18 17 29 0 28
-249 380 -269 380 -9 0 -21 -4 -26 -8z m90 -189 c33 -48 68 -99 78 -115 l19
-28 -297 0 -296 0 20 28 c11 15 45 54 76 87 l55 60 54 -57 c62 -67 85 -72 117
-25 60 85 100 137 107 137 4 0 34 -39 67 -87z"/>
<path d="M2893 1468 c-16 -20 -96 -356 -89 -373 9 -24 55 -19 66 8 6 12 28 96
50 186 30 124 37 167 29 178 -14 16 -43 17 -56 1z"/>
<path d="M2657 1364 c-92 -78 -93 -86 -21 -151 77 -68 99 -80 119 -63 26 21
17 46 -32 89 l-48 40 48 41 c47 42 57 66 35 88 -20 20 -30 15 -101 -44z"/>
<path d="M2996 1404 c-23 -22 -21 -28 29 -75 25 -23 45 -46 45 -50 0 -4 -21
-27 -46 -51 -46 -44 -51 -69 -17 -82 19 -8 28 -2 102 59 38 31 61 58 61 70 0
20 -38 62 -108 118 -39 31 -45 32 -66 11z"/>
</g>
</svg>
